<svg width="40" height="40" viewBox="0 0 40 40" fill="none" xmlns="http://www.w3.org/2000/svg">
<path d="M29.3409 14.2752C26.8126 11.8465 24.2444 9.37957 21.6919 6.92773C19.3196 9.2066 16.9262 11.5056 14.5664 13.7714C17.1136 16.2182 19.6787 18.6831 22.2154 21.1198C24.5658 18.8621 26.9644 16.5581 29.3409 14.2752Z" fill="url(#paint0_linear_2107_11568)"/>
<path d="M16.4088 16.8359C15.2206 17.8507 14.0082 18.8845 12.7958 19.9183C9.51992 22.7141 6.23878 25.5049 2.96916 28.3067C1.79658 29.3114 1.58719 30.8671 2.43208 32.0538C3.53556 33.6056 5.80011 33.7212 7.13706 32.2861C8.56719 30.7505 9.9879 29.2058 11.4128 27.6651C13.8888 24.9869 16.3638 22.3098 18.8388 19.6317C18.9247 19.5392 19.0032 19.4416 19.0576 19.3793C18.175 18.5315 17.3092 17.7008 16.4099 16.8369L16.4088 16.8359Z" fill="url(#paint1_linear_2107_11568)"/>
<path d="M26.5967 37.9781C29.5795 37.9781 32.5622 37.9781 35.545 37.9781C36.4077 37.9781 36.6621 37.7307 36.6631 36.898C36.6631 36.3328 36.6747 35.7666 36.6558 35.2014C36.615 33.9805 35.5733 32.9769 34.3002 32.9748C29.1586 32.9638 24.0181 32.9648 18.8765 32.9738C17.5668 32.9758 16.5251 33.9805 16.4801 35.2497C16.4602 35.8149 16.4738 36.3801 16.4748 36.9463C16.4759 37.7005 16.7554 37.9771 17.5323 37.9781C19.6513 37.9811 21.7703 37.9781 23.8904 37.9781C24.7928 37.9781 25.6953 37.9781 26.5978 37.9781H26.5967Z" fill="url(#paint2_linear_2107_11568)"/>
<path d="M33.9998 32.202C33.9998 31.7886 34.0197 31.4105 33.9967 31.0354C33.9213 29.8165 32.9173 28.845 31.6484 28.838C28.2605 28.8179 24.8725 28.8159 21.4846 28.839C20.1906 28.848 19.1709 29.8819 19.1384 31.1239C19.129 31.4739 19.1374 31.8238 19.1374 32.202H33.9998Z" fill="url(#paint3_linear_2107_11568)"/>
<path d="M31.4148 14.172C30.9154 14.166 30.4872 14.3329 30.1385 14.6678C27.6196 17.0825 25.0985 19.4951 22.5921 21.9218C21.8582 22.6318 21.8865 23.7099 22.6078 24.3917C23.3198 25.0655 24.4201 25.0887 25.1509 24.3927C27.6772 21.9861 30.1909 19.5665 32.7004 17.1428C33.2637 16.5987 33.383 15.93 33.0763 15.229C32.7737 14.5401 32.1927 14.1972 31.4148 14.172Z" fill="url(#paint4_linear_2107_11568)"/>
<path d="M20.0261 3.23258C19.5278 3.22655 19.0975 3.38846 18.7478 3.72335C16.2205 6.14704 13.6889 8.5677 11.1763 11.0055C10.4602 11.6994 10.5031 12.7704 11.2119 13.4482C11.9165 14.121 13.0304 14.1432 13.7549 13.4523C16.2896 11.0356 18.8148 8.60893 21.3306 6.17419C21.8824 5.64017 21.9839 4.97542 21.6855 4.29056C21.3851 3.59966 20.8051 3.25672 20.0261 3.23258Z" fill="url(#paint5_linear_2107_11568)"/>
<defs>
<linearGradient id="paint0_linear_2107_11568" x1="14.5664" y1="14.0238" x2="29.3409" y2="14.0238" gradientUnits="userSpaceOnUse">
<stop stop-color="#FB3E33"/>
<stop offset="1" stop-color="#400406"/>
</linearGradient>
<linearGradient id="paint1_linear_2107_11568" x1="1.91825" y1="25.0649" x2="19.0576" y2="25.0649" gradientUnits="userSpaceOnUse">
<stop stop-color="#FB3E33"/>
<stop offset="1" stop-color="#400406"/>
</linearGradient>
<linearGradient id="paint2_linear_2107_11568" x1="16.4693" y1="35.4731" x2="36.6666" y2="35.4731" gradientUnits="userSpaceOnUse">
<stop stop-color="#FB3E33"/>
<stop offset="1" stop-color="#400406"/>
</linearGradient>
<linearGradient id="paint3_linear_2107_11568" x1="19.1339" y1="30.5121" x2="34.0078" y2="30.5121" gradientUnits="userSpaceOnUse">
<stop stop-color="#FB3E33"/>
<stop offset="1" stop-color="#400406"/>
</linearGradient>
<linearGradient id="paint4_linear_2107_11568" x1="22.0542" y1="19.5389" x2="33.2411" y2="19.5389" gradientUnits="userSpaceOnUse">
<stop stop-color="#FB3E33"/>
<stop offset="1" stop-color="#400406"/>
</linearGradient>
<linearGradient id="paint5_linear_2107_11568" x1="10.6593" y1="8.59706" x2="21.85" y2="8.59706" gradientUnits="userSpaceOnUse">
<stop stop-color="#FB3E33"/>
<stop offset="1" stop-color="#400406"/>
</linearGradient>
</defs>
</svg>
